<svg width="37" height="38" xmlns="http://www.w3.org/2000/svg" xmlns:xlink="http://www.w3.org/1999/xlink" overflow="hidden"><defs><clipPath id="clip0"><rect x="212" y="491" width="37" height="38"/></clipPath></defs><g clip-path="url(#clip0)" transform="translate(-212 -491)"><path d="M18.5 6.16667C21.48 6.16667 23.8958 8.58246 23.8958 11.5625 23.8958 14.5425 21.48 16.9583 18.5 16.9583 15.52 16.9583 13.1042 14.5425 13.1042 11.5625 13.1071 8.58369 15.5212 6.16963 18.5 6.16667M18.5 5.39583C15.0942 5.39583 12.3333 8.15673 12.3333 11.5625 12.3333 14.9683 15.0942 17.7292 18.5 17.7292 21.9058 17.7292 24.6667 14.9683 24.6667 11.5625 24.6667 8.15673 21.9058 5.39583 18.5 5.39583Z" transform="matrix(1 0 0 1.02703 212 491)"/><path d="M30.8333 31.6042 30.0625 31.6042 30.0625 25.6302C30.0442 24.8115 29.6585 24.0446 29.0122 23.5416 27.3219 22.2446 25.3865 21.3032 23.3227 20.774 21.7601 20.2931 20.1349 20.0463 18.5 20.0417 16.8656 20.07 15.2423 20.3163 13.673 20.774 11.6308 21.3721 9.70394 22.3103 7.9735 23.549 7.33379 24.0525 6.95357 24.8163 6.9375 25.6302L6.9375 31.6042 6.16667 31.6042 6.16667 25.6302C6.18578 24.5775 6.67784 23.5893 7.50637 22.9396 9.31456 21.6416 11.3293 20.6588 13.4653 20.0328 15.1021 19.5559 16.7953 19.2996 18.5 19.2708 20.2082 19.275 21.9064 19.5321 23.5393 20.0336 25.7013 20.5907 27.728 21.58 29.4971 22.9419 30.324 23.5916 30.8147 24.5788 30.8333 25.6302Z" transform="matrix(1 0 0 1.02703 212 491)"/></g></svg>