<svg width="512" height="512" xmlns="http://www.w3.org/2000/svg" xmlns:xlink="http://www.w3.org/1999/xlink" overflow="hidden"><defs><clipPath id="clip0"><rect x="384" y="104" width="512" height="512"/></clipPath></defs><g clip-path="url(#clip0)" transform="translate(-384 -104)"><path d="M757.405 104 522.594 104C446.172 104 384 166.172 384 242.594L384 477.409C384 553.827 446.172 615.999 522.594 615.999L757.409 615.999C833.827 615.999 895.999 553.827 895.999 477.409L895.999 242.594C895.999 166.172 833.827 104 757.405 104ZM640 499.995C562.805 499.995 500.004 437.194 500.004 360 500.004 282.805 562.805 220.004 640 220.004 717.194 220.004 779.995 282.805 779.995 360 779.995 437.194 717.194 499.995 640 499.995ZM783.343 253.02C760.53 253.02 741.976 234.465 741.976 211.652 741.976 188.84 760.53 170.281 783.343 170.281 806.155 170.281 824.714 188.84 824.714 211.652 824.714 234.465 806.155 253.02 783.343 253.02Z" fill="#FFFFFF"/><path d="M640 250.02C579.359 250.02 530.02 299.355 530.02 360 530.02 420.64 579.359 469.979 640 469.979 700.644 469.979 749.979 420.64 749.979 360 749.979 299.355 700.644 250.02 640 250.02Z" fill="#FFFFFF"/><path d="M783.343 200.301C777.085 200.301 771.991 205.395 771.991 211.652 771.991 217.91 777.085 223.004 783.343 223.004 789.604 223.004 794.698 217.914 794.698 211.652 794.698 205.391 789.604 200.301 783.343 200.301Z" fill="#FFFFFF"/></g></svg>