<svg width="75" height="76" xmlns="http://www.w3.org/2000/svg" xmlns:xlink="http://www.w3.org/1999/xlink" overflow="hidden"><defs><clipPath id="clip0"><rect x="207" y="-6" width="75" height="76"/></clipPath></defs><g clip-path="url(#clip0)" transform="translate(-207 6)"><path d="M25.625 50 24.0625 50C22.5 50.9375 20.7812 51.5625 18.9844 51.875L18.9844 52.3438C18.9844 53.6719 20 54.6875 21.3281 54.6875L25.625 54.6875C26.9531 54.6875 27.9688 53.6719 27.9688 52.3438 27.9688 51.0156 26.9531 50 25.625 50Z" fill="#FFFFFF" transform="matrix(1 0 0 1.01333 207 -6)"/><path d="M43.8281 33.6719C41.5625 34.375 39.1406 33.8281 37.5 32.1094L31.4844 26.6406C26.9531 22.5781 20.0781 22.3438 15.3125 26.1719 13.3594 23.8281 13.6719 20.3906 16.0156 18.4375 17.0312 17.5781 18.2812 17.1875 19.5312 17.1875 20.8594 17.1875 21.875 16.1719 21.875 14.8438 21.875 13.5156 20.8594 12.5 19.5312 12.5 13.9062 12.5 9.375 17.0312 9.375 22.6562 9.375 25.3906 10.4688 28.0469 12.4219 29.9219 11.4062 32.3438 11.5625 35.0781 12.8125 37.3438L13.8281 39.2969C14.6094 40.7031 15.1562 42.2656 15.3906 43.9062L15.4687 44.6094C15.4687 44.8438 15.5469 45 15.4687 45.2344L12.6563 48.0469C12.1875 48.5156 11.9531 49.0625 11.9531 49.6875L11.9531 57.0312C11.9531 58.3594 12.9688 59.375 14.2969 59.375L18.5938 59.375C19.9219 59.375 20.9375 58.3594 20.9375 57.0312 20.9375 55.7031 19.9219 54.6875 18.5938 54.6875L16.6406 54.6875 16.6406 50.5469C20.1562 50.5469 23.5156 49.0625 25.9375 46.4844L27.8906 49.0625C29.9219 51.7969 32.9688 53.6719 36.3281 54.0625 37.5781 54.1406 38.5938 54.8437 39.1406 56.0156L39.6875 57.2656C39.8438 58.2812 40.5469 59.0625 41.4844 59.2969L55.5469 62.4219C56.7969 62.6562 58.0469 61.875 58.3594 60.625 58.5938 59.375 57.8125 58.125 56.5625 57.8906L48.4375 56.0156 49.1406 53.9844 59.6875 55.4688C60.9375 55.625 62.1094 54.6875 62.2656 53.4375 62.4219 52.1875 61.5625 51.0156 60.3125 50.8594L50.625 49.5312 50.625 49.375 50.625 49.2969 54.375 44.9219 58.5156 46.7188C61.4844 48.0469 65 46.7188 66.3281 43.75L66.4062 43.5156 63.75 40.3125C64.2969 36.7969 62.5 33.3594 59.2188 31.9531L56.3281 31.0156C55.625 30.7813 55 30.7031 54.2969 30.7031L53.9062 30.7031C53.8281 30.7031 53.6719 30.7031 53.5938 30.7031L51.875 34.0625C51.6406 34.4531 51.5625 34.9219 51.6406 35.3906 51.7187 36.0938 52.1875 36.7969 52.8906 37.1094 53.0469 37.1875 53.2031 37.2656 53.3594 37.2656 53.9062 37.4219 54.5313 37.2656 55 37.0312 55.3906 36.7969 55.7031 36.4062 55.9375 36.0156 56.0938 35.625 56.5625 35.4688 56.9531 35.625 57.3438 35.7812 57.5 36.25 57.3438 36.6406 57.3438 36.6406 57.3438 36.6406 57.3438 36.6406 57.0312 37.2656 56.4844 37.8906 55.8594 38.2812 55.2344 38.6719 54.6094 38.8281 53.9062 38.9062 53.5938 38.9062 53.3594 38.9062 53.0469 38.8281 52.7344 38.75 52.4219 38.6719 52.1875 38.5156 51.0938 37.8906 50.3906 36.875 50.1562 35.625 50.0781 34.8438 50.2344 34.0625 50.5469 33.3594L51.7187 31.0938C51.5625 31.1719 51.4063 31.1719 51.1719 31.25L43.8281 33.6719ZM50.5469 45.8594 44.1406 35.9375C44.1406 35.9375 44.2188 35.9375 44.2188 35.9375 44.375 35.8594 44.6094 35.7812 44.7656 35.7031L46.4844 35.1562 52.1875 43.9844 50.5469 45.8594Z" fill="#FFFFFF" transform="matrix(1 0 0 1.01333 207 -6)"/></g></svg>