<svg width="785" height="260" xmlns="http://www.w3.org/2000/svg" xmlns:xlink="http://www.w3.org/1999/xlink" overflow="hidden"><defs><clipPath id="clip0"><rect x="710" y="-20" width="785" height="260"/></clipPath><clipPath id="clip1"><rect x="709" y="-20" width="262" height="260"/></clipPath><clipPath id="clip2"><rect x="709" y="-20" width="262" height="260"/></clipPath><clipPath id="clip3"><rect x="709" y="-20" width="262" height="260"/></clipPath></defs><g clip-path="url(#clip0)" transform="translate(-710 20)"><g clip-path="url(#clip1)"><g clip-path="url(#clip2)"><g clip-path="url(#clip3)"><path d="M88.8333 173.333 83.4166 173.333C78 176.583 72.0416 178.75 65.8125 179.833L65.8125 181.458C65.8125 186.062 69.3333 189.583 73.9375 189.583L88.8333 189.583C93.4375 189.583 96.9583 186.062 96.9583 181.458 96.9583 176.854 93.4375 173.333 88.8333 173.333Z" fill="#FFFFFF" transform="matrix(1 0 0 1 710 -19.9999)"/><path d="M151.937 116.729C144.083 119.167 135.687 117.271 130 111.312L109.146 92.3541C93.4375 78.2708 69.6041 77.4583 53.0833 90.7291 46.3125 82.6041 47.3958 70.6875 55.5208 63.9166 59.0416 60.9375 63.375 59.5833 67.7083 59.5833 72.3125 59.5833 75.8333 56.0625 75.8333 51.4583 75.8333 46.8541 72.3125 43.3333 67.7083 43.3333 48.2083 43.3333 32.5 59.0416 32.5 78.5416 32.5 88.0208 36.2916 97.2291 43.0625 103.729 39.5416 112.125 40.0833 121.604 44.4166 129.458L47.9375 136.229C50.6458 141.104 52.5416 146.521 53.3541 152.208L53.625 154.646C53.625 155.458 53.8958 156 53.625 156.812L43.875 166.562C42.25 168.187 41.4375 170.083 41.4375 172.25L41.4375 197.708C41.4375 202.312 44.9583 205.833 49.5625 205.833L64.4583 205.833C69.0625 205.833 72.5833 202.312 72.5833 197.708 72.5833 193.104 69.0625 189.583 64.4583 189.583L57.6875 189.583 57.6875 175.229C69.875 175.229 81.5208 170.083 89.9166 161.146L96.6875 170.083C103.729 179.562 114.292 186.062 125.937 187.417 130.271 187.687 133.792 190.125 135.687 194.187L137.583 198.521C138.125 202.042 140.562 204.75 143.812 205.562L192.562 216.396C196.896 217.208 201.229 214.5 202.312 210.167 203.125 205.833 200.417 201.5 196.083 200.687L167.917 194.187 170.354 187.146 206.917 192.292C211.25 192.833 215.312 189.583 215.854 185.25 216.396 180.917 213.417 176.854 209.083 176.312L175.5 171.708 175.5 171.167 175.5 170.896 188.5 155.729 202.854 161.958C213.146 166.562 225.333 161.958 229.937 151.667L230.208 150.854 221 139.75C222.896 127.562 216.667 115.646 205.292 110.771L195.271 107.521C192.833 106.708 190.667 106.437 188.229 106.437L186.875 106.437C186.604 106.437 186.062 106.437 185.792 106.437L179.833 118.083C179.021 119.437 178.75 121.062 179.021 122.687 179.292 125.125 180.917 127.562 183.354 128.646 183.896 128.917 184.437 129.187 184.979 129.187 186.875 129.729 189.042 129.187 190.667 128.375 192.021 127.562 193.104 126.208 193.917 124.854 194.458 123.5 196.083 122.958 197.437 123.5 198.792 124.042 199.333 125.667 198.792 127.021 198.792 127.021 198.792 127.021 198.792 127.021 197.708 129.187 195.812 131.354 193.646 132.708 191.479 134.062 189.312 134.604 186.875 134.875 185.792 134.875 184.979 134.875 183.896 134.604 182.812 134.333 181.729 134.062 180.917 133.521 177.125 131.354 174.687 127.833 173.875 123.5 173.604 120.792 174.146 118.083 175.229 115.646L179.292 107.792C178.75 108.062 178.208 108.062 177.396 108.333L151.937 116.729ZM175.229 158.979 153.021 124.583C153.021 124.583 153.292 124.583 153.292 124.583 153.833 124.312 154.646 124.042 155.187 123.771L161.146 121.875 180.917 152.479 175.229 158.979Z" fill="#FFFFFF" transform="matrix(1 0 0 1 710 -19.9999)"/></g></g></g><text fill="#FFFFFF" font-family="Century Gothic,Century Gothic_MSFontService,sans-serif" font-weight="400" font-size="46" transform="matrix(1 0 0 1 967.523 99)">INVERNESS<tspan font-size="46" x="0" y="55">DOG WALKING</tspan></text></g></svg>