<svg width="512" height="512" xmlns="http://www.w3.org/2000/svg" xmlns:xlink="http://www.w3.org/1999/xlink" overflow="hidden"><defs><clipPath id="clip0"><rect x="384" y="104" width="512" height="512"/></clipPath></defs><g clip-path="url(#clip0)" transform="translate(-384 -104)"><path d="M896 201.248C876.96 209.6 856.672 215.136 835.52 217.824 857.28 204.832 873.888 184.416 881.696 159.808 861.408 171.904 839.008 180.448 815.136 185.216 795.872 164.704 768.416 152 738.464 152 680.352 152 633.568 199.168 633.568 256.992 633.568 265.312 634.272 273.312 636 280.928 548.736 276.672 471.52 234.848 419.648 171.136 410.592 186.848 405.28 204.832 405.28 224.192 405.28 260.544 424 292.768 451.904 311.424 435.04 311.104 418.496 306.208 404.48 298.496 404.48 298.816 404.48 299.232 404.48 299.648 404.48 350.656 440.864 393.024 488.576 402.784 480.032 405.12 470.72 406.24 461.056 406.24 454.336 406.24 447.552 405.856 441.184 404.448 454.784 446.016 493.376 476.576 539.264 477.568 503.552 505.504 458.208 522.336 409.12 522.336 400.512 522.336 392.256 521.952 384 520.896 430.496 550.88 485.6 568 545.024 568 738.176 568 843.776 408 843.776 269.312 843.776 264.672 843.616 260.192 843.392 255.744 864.224 240.96 881.728 222.496 896 201.248Z" fill="#FFFFFF"/></g></svg>